<svg xmlns="http://www.w3.org/2000/svg" width="100%" height="100%" viewBox="0 0 200 200">
  <defs>
    <!-- keep same IDs -->
    <linearGradient id="bodyGradient" x1="0%" y1="0%" x2="100%" y2="100%">
      <stop offset="0%" style="stop-color:#4fc3f7;stop-opacity:1" />
      <stop offset="50%" style="stop-color:#29b6f6;stop-opacity:1" />
      <stop offset="100%" style="stop-color:#0288d1;stop-opacity:1" />
    </linearGradient>
    <linearGradient id="wingGradient" x1="0%" y1="0%" x2="100%" y2="0%">
      <stop offset="0%" style="stop-color:#29b6f6;stop-opacity:1" />
      <stop offset="50%" style="stop-color:#0288d1;stop-opacity:1" />
      <stop offset="100%" style="stop-color:#01579b;stop-opacity:1" />
    </linearGradient>
    <linearGradient id="beakGradient" x1="0%" y1="0%" x2="100%" y2="0%">
      <stop offset="0%" style="stop-color:#ffcc80;stop-opacity:1" />
      <stop offset="50%" style="stop-color:#ff9800;stop-opacity:1" />
      <stop offset="100%" style="stop-color:#ef6c00;stop-opacity:1" />
    </linearGradient>
    <linearGradient id="bellyGradient" x1="0%" y1="0%" x2="0%" y2="100%">
      <stop offset="0%" style="stop-color:#ffffff;stop-opacity:1" />
      <stop offset="100%" style="stop-color:#cfefff;stop-opacity:1" />
    </linearGradient>
    <filter id="shadow" x="-20%" y="-20%" width="140%" height="140%">
      <feDropShadow dx="0" dy="2" stdDeviation="2" flood-opacity=".35"/>
    </filter>
  </defs>

  <ellipse cx="100" cy="150" rx="38" ry="12" fill="#000" opacity="0.18" filter="url(#shadow)"/>

  <g>
    <circle cx="100" cy="100" r="64" fill="url(#bodyGradient)" stroke="#01579b" stroke-width="3"/>

    <ellipse cx="100" cy="118" rx="46" ry="38" fill="url(#bellyGradient)"/>

    <g transform="rotate(-8,100,100)">
      <path d="M64,98 C48,82 48,62 62,50 C86,64 92,82 80,104 Z"
            fill="url(#wingGradient)" stroke="#01579b" stroke-width="3"/>
      <path d="M68,88 Q60,72 66,60" fill="none" stroke="#01579b" stroke-width="2" opacity=".7"/>
      <path d="M74,90 Q68,78 72,66" fill="none" stroke="#01579b" stroke-width="1.5" opacity=".7"/>
    </g>

    <g>
      <circle cx="132" cy="84" r="17" fill="#fff" stroke="#263238" stroke-width="3"/>
      <circle cx="136" cy="82" r="9" fill="#263238"/>
      <circle cx="139" cy="79" r="3.2" fill="#fff"/>
      <path d="M120,68 Q132,62 144,68" fill="none" stroke="#263238" stroke-width="2"/>
    </g>

    <g>
      <path d="M154,92 L184,98 L154,106 Z" fill="url(#beakGradient)" stroke="#ef6c00" stroke-width="3"/>
      <path d="M158,96 L170,98" stroke="#fff" stroke-opacity=".45" stroke-width="2"/>
    </g>

    <path d="M94,44 L88,28 L100,36 L110,24 L120,36 L130,28 L124,44"
          fill="#0288d1" stroke="#01579b" stroke-width="2"/>

    <path d="M42,90 C24,74 22,100 42,118 C56,110 62,102 66,96 Z"
          fill="url(#wingGradient)" stroke="#01579b" stroke-width="3"/>

    <path d="M82,160 c-8,12 -2,16 8,12 c10,4 18,0 12,-12"
          fill="#ffb74d" stroke="#ef6c00" stroke-width="3"/>
  </g>
</svg>
