<svg xmlns="http://www.w3.org/2000/svg" width="100%" height="100%" viewBox="0 0 200 200">
  <defs>
    <linearGradient id="bodyGradient" x1="0%" y1="0%" x2="100%" y2="100%">
      <stop offset="0%"  style="stop-color:#4fc3f7"/>
      <stop offset="50%" style="stop-color:#29b6f6"/>
      <stop offset="100%" style="stop-color:#0288d1"/>
    </linearGradient>
    <linearGradient id="wingGradient" x1="0%" y1="0%" x2="100%" y2="0%">
      <stop offset="0%"  style="stop-color:#29b6f6"/>
      <stop offset="50%" style="stop-color:#0288d1"/>
      <stop offset="100%" style="stop-color:#01579b"/>
    </linearGradient>
    <linearGradient id="beakGradient" x1="0%" y1="0%" x2="100%" y2="0%">
      <stop offset="0%"  style="stop-color:#ffcc80"/>
      <stop offset="50%" style="stop-color:#ff9800"/>
      <stop offset="100%" style="stop-color:#ef6c00"/>
    </linearGradient>
    <linearGradient id="bellyGradient" x1="0%" y1="0%" x2="0%" y2="100%">
      <stop offset="0%"  style="stop-color:#ffffff"/>
      <stop offset="100%" style="stop-color:#cfefff"/>
    </linearGradient>
    <filter id="shadow" x="-20%" y="-20%" width="140%" height="140%">
      <feDropShadow dx="0" dy="2" stdDeviation="2" flood-opacity="0.35"/>
    </filter>
  </defs>

  <ellipse cx="100" cy="150" rx="38" ry="12" fill="#000" opacity="0.18" filter="url(#shadow)"/>

  <g transform="rotate(14,100,100)">
    <circle cx="100" cy="100" r="64" fill="url(#bodyGradient)" stroke="#01579b" stroke-width="3"/>
    <ellipse cx="100" cy="118" rx="46" ry="38" fill="url(#bellyGradient)"/>

    <g transform="rotate(-10,70,100)">
      <path d="M62,96 C48,86 46,72 54,62 C72,74 80,88 76,104 Z"
            fill="url(#wingGradient)" stroke="#01579b" stroke-width="3"/>
      <path d="M64,92 Q56,80 60,70" fill="none" stroke="#01579b" stroke-width="2" opacity=".7"/>
      <path d="M70,92 Q64,82 66,74" fill="none" stroke="#01579b" stroke-width="1.5" opacity=".7"/>
    </g>

    <g>
      <circle cx="132" cy="84" r="17" fill="#fff" stroke="#263238" stroke-width="3"/>
      <circle cx="136" cy="82" r="8.5" fill="#263238"/>
      <circle cx="139" cy="79" r="3.2" fill="#fff"/>
      <path d="M120,74 Q132,70 144,74" fill="none" stroke="#263238" stroke-width="2"/>
    </g>

    <g>
      <path d="M154,92 L184,98 L154,106 Z" fill="url(#beakGradient)" stroke="#ef6c00" stroke-width="3"/>
      <path d="M158,97 L170,99" stroke="#fff" stroke-opacity=".4" stroke-width="2" />
    </g>

    <path d="M96,48 L90,34 L100,42 L110,32 L120,42 L130,34 L124,48"
          fill="#0288d1" stroke="#01579b" stroke-width="2"/>

    <path d="M40,88 C18,70 16,100 40,120 C56,112 62,104 66,96 Z"
          fill="url(#wingGradient)" stroke="#01579b" stroke-width="3"/>

    <path d="M84,150 c-8,10 -2,14 8,10 c10,4 18,0 12,-10"
          fill="#ffb74d" stroke="#ef6c00" stroke-width="3"/>
  </g>
</svg>
