<svg xmlns="http://www.w3.org/2000/svg" width="100%" height="100%" viewBox="0 0 200 200">
  <defs>
    <linearGradient id="bodyGradient" x1="0%" y1="0%" x2="100%" y2="100%">
      <stop offset="0%"  style="stop-color:#4fc3f7"/>
      <stop offset="50%" style="stop-color:#29b6f6"/>
      <stop offset="100%" style="stop-color:#0288d1"/>
    </linearGradient>
    <linearGradient id="wingGradient" x1="0%" y1="0%" x2="100%" y2="0%">
      <stop offset="0%"  style="stop-color:#29b6f6"/>
      <stop offset="50%" style="stop-color:#0288d1"/>
      <stop offset="100%" style="stop-color:#01579b"/>
    </linearGradient>
    <linearGradient id="beakGradient" x1="0%" y1="0%" x2="100%" y2="0%">
      <stop offset="0%"  style="stop-color:#ffcc80"/>
      <stop offset="50%" style="stop-color:#ff9800"/>
      <stop offset="100%" style="stop-color:#ef6c00"/>
    </linearGradient>
    <linearGradient id="bellyGradient" x1="0%" y1="0%" x2="0%" y2="100%">
      <stop offset="0%"  style="stop-color:#ffffff"/>
      <stop offset="100%" style="stop-color:#cfefff"/>
    </linearGradient>
    <filter id="shadow" x="-20%" y="-20%" width="140%" height="140%">
      <feDropShadow dx="0" dy="2" stdDeviation="2" flood-opacity="0.35"/>
    </filter>
  </defs>

  <ellipse cx="100" cy="150" rx="38" ry="12" fill="#000" opacity="0.18" filter="url(#shadow)"/>

  <g>
    <circle cx="100" cy="100" r="64" fill="url(#bodyGradient)" stroke="#01579b" stroke-width="3"/>

    <ellipse cx="100" cy="118" rx="46" ry="38" fill="url(#bellyGradient)"/>

    <g transform="rotate(-20,100,100)">
      <path d="M62,94 C40,70 42,46 60,34 C86,48 92,72 76,98 Z"
            fill="url(#wingGradient)" stroke="#01579b" stroke-width="3"/>
      <path d="M66,86 Q56,66 64,50" fill="none" stroke="#01579b" stroke-width="2" opacity=".7"/>
      <path d="M72,86 Q66,70 70,58" fill="none" stroke="#01579b" stroke-width="1.5" opacity=".7"/>
    </g>

    <g>
      <circle cx="132" cy="84" r="17" fill="#fff" stroke="#263238" stroke-width="3"/>
      <circle cx="136" cy="82" r="8.5" fill="#263238"/>
      <circle cx="139" cy="79" r="3.2" fill="#fff"/>
      <path d="M120,68 Q132,62 144,68" fill="none" stroke="#263238" stroke-width="2"/>
    </g>

    <g>
      <path d="M154,92 L184,98 L154,106 Z"
            fill="url(#beakGradient)" stroke="#ef6c00" stroke-width="3"/>
      <path d="M158,95 L168,97" stroke="#fff" stroke-opacity=".4" stroke-width="2" />
    </g>

    <path d="M94,44 L88,26 L100,36 L110,22 L120,36 L130,26 L124,44"
          fill="#0288d1" stroke="#01579b" stroke-width="2"/>

    <g transform="rotate(-10,60,100)">
      <path d="M38,86 C18,68 16,100 38,120 C54,112 60,104 62,96 Z"
            fill="url(#wingGradient)" stroke="#01579b" stroke-width="3"/>
      <path d="M40,92 C28,78 26,98 40,112" fill="none" stroke="#01579b" stroke-width="2" opacity=".8"/>
    </g>

    <path d="M82,160 c-8,12 -2,16 8,12 c10,4 18,0 12,-12"
          fill="#ffb74d" stroke="#ef6c00" stroke-width="3"/>
  </g>
</svg>
